<mxfile host="app.diagrams.net" modified="2023-08-14T17:22:58.578Z" agent="Mozilla/5.0 (Windows NT 10.0; Win64; x64; rv:109.0) Gecko/20100101 Firefox/117.0" version="21.6.8" etag="ZBym74hdJx15aP0Ivakn" type="github">
  <diagram name="Page-1" id="YA-BHzgiQm8aou1QHumo">
    <mxGraphModel>
      <root>
        <mxCell id="0" />
        <mxCell id="1" parent="0" />
      </root>
    </mxGraphModel>
  </diagram>
</mxfile>
